# xmcd
#
# Track frame offsets:
#	150
#	15077
#	26318
#	44826
#	58597
#	69623
#	81725
#	102502
#
# Disc length: 1406 seconds
#
# Revision: 0
# Processed by: cddbd v1.4PL0 Copyright (c) Steve Scherf et al.
# Submitted via: dBpowerAMP V4.0
#
DISCID=67057c08
DTITLE=THE MILLER BROTHERS BLUGRASS BAND - A BLUEGRASS CHRISTMAS
DYEAR=1900
DGENRE=Bluegrass
TTITLE0=THE OLD HOME PLACE
TTITLE1=HOT BURRITIO BREAKDOWN
TTITLE2=RYDER
TTITLE3=HOME SWEET HOME REVISITED
TTITLE4=FOGGY MTN BREAKDOWN
TTITLE5=I'LL GO STEPPIN' TOO
TTITLE6=MOONLIGHT MIDNIGHT
TTITLE7=MERRY DHRISTMAS
EXTD=
EXTT0=
EXTT1=
EXTT2=
EXTT3=
EXTT4=
EXTT5=
EXTT6=
EXTT7=
PLAYORDER=
